<svg id="Capa_1" data-name="Capa 1" xmlns="http://www.w3.org/2000/svg" viewBox="0 0 798.78 438.88"><defs><style>.cls-1{opacity:0.85;}.cls-2{fill:#ffff1d;}.cls-3{fill:#352f75;}</style></defs><g class="cls-1"><path class="cls-2" d="M499.18,564.43c-2.2.07-4.41.19-6.62.2a13.83,13.83,0,0,1,3.4,1.19C497.43,566.16,498.15,565.26,499.18,564.43Z" transform="translate(-307.03 -155.09)"/><path class="cls-2" d="M486.45,564.45l-1.17,0c-.36.11-.7.23-1,.35C485,564.64,485.73,564.54,486.45,564.45Z" transform="translate(-307.03 -155.09)"/><path class="cls-2" d="M474.9,565.11a25.4,25.4,0,0,0,5.88.18A16.07,16.07,0,0,0,474.9,565.11Z" transform="translate(-307.03 -155.09)"/><path class="cls-2" d="M484.09,566.38c-.71-.57-1-1.16.13-1.6h0c-1.15.18-2.29.39-3.49.52A12.5,12.5,0,0,1,484.09,566.38Z" transform="translate(-307.03 -155.09)"/><path class="cls-2" d="M484.09,566.38c.68.55,1.78,1.06,2.16,1.38A12.48,12.48,0,0,0,484.09,566.38Z" transform="translate(-307.03 -155.09)"/><path class="cls-2" d="M480.82,580c-1.27.38-.85-3.46-3.32-2.73-2.88.38-5.59.92-8.27,1.34a25.71,25.71,0,0,1-4,.35,30.13,30.13,0,0,1-4-.18C460,579,458.47,578,457,577a17.15,17.15,0,0,0-2.15-1.38,3.1,3.1,0,0,0-2-.52,78.35,78.35,0,0,0-11.84,1.4c-3.56.58-5.37,1.41-1,2.34,3.3.57,6.35.86,9.21,1.2l4.19.45c1.36.15,2.72.14,4.06.21l8,.31,2,.07,2.09,0,4.33,0c2.44-.26,4.83-.48,7.21-.83l7.09-1.26,3.52-.63,1.77-.31,1.76-.41c2.35-.54,4.71-1.07,7.1-1.58a31.24,31.24,0,0,1,3.95-.24c1.28-.08,2.56-.1,3.84-.13l-2.54-.13-1.29-.06-1.31-.13-5.45-.51a8.88,8.88,0,0,0-3.9.43,20.67,20.67,0,0,0-2.09.77c-.72.26-1.47.55-2.23.85A40.48,40.48,0,0,1,480.82,580Z" transform="translate(-307.03 -155.09)"/><path class="cls-2" d="M547.56,557.35l-2.92,2.33a14.31,14.31,0,0,0-2.13-.2c-.68,0-1.37,0-2,0a17.57,17.57,0,0,0-4,.69,60.87,60.87,0,0,0-7.64,3.1c.93.5,1.86.9,2.8,1.31,3-1,3.09-2.14.21-2.25a39.13,39.13,0,0,0,9.65-.27,48.85,48.85,0,0,0,8.88-2.77C549.69,558.47,549.37,557.31,547.56,557.35Z" transform="translate(-307.03 -155.09)"/><path class="cls-2" d="M553.76,557.88c-1.11.5-2.24,1-3.36,1.45a1.94,1.94,0,0,0,.23.27l3.29-1.67Z" transform="translate(-307.03 -155.09)"/><path class="cls-2" d="M449.94,565.71a177.25,177.25,0,0,1-42.68-13c-1.29.24-2.35.72-3.53-.3a12.68,12.68,0,0,0-2.52-2.63c-1.88-.92-3.78-1.78-5.56-2.87-.68-.26-1.38-.51-2.09-.76h-.06c-1.24-.16-1.21.53-.82,1.37A13.39,13.39,0,0,1,394,549.8c-.22-.48-.95-1.44-1.33-2.27a12.4,12.4,0,0,0-2.49-2.54c-.91-.34-1.82-.71-2.72-1.14-.45-.22-.9-.45-1.34-.71s-.85-.57-1.26-.89c.55.2,1.06.42,1.55.64s1,.41,1.42.64a14.72,14.72,0,0,1,2.35,1.46c1.14.43,2.26.8,3.37,1.18l1.06.17-6.19-3.55-1.54-.9-1.48-1-3-2c-1-.49-1.91-1-2.7-1.29s-1.61-.68-2.37-1a10.31,10.31,0,0,1-2.11-1.22,6.09,6.09,0,0,1-2.52-3.39l-2-1.55c.05.18.14.36.19.56a6.81,6.81,0,0,1-.56-.85c-1.4-1.1-2.85-2.14-4.19-3.31s-2.71-2.31-4-3.51a55.61,55.61,0,0,1-6.77-3s-.29-2.05-.41-3a7.09,7.09,0,0,1-4.13-1.47,40.33,40.33,0,0,0,1.57,6.1c.23,1.56,1.94,1.78,3.5,2.18s3,.92,3,3.23c0-2.31-1.41-2.86-3-3.23s-3.27-.62-3.5-2.18a40.33,40.33,0,0,1-1.57-6.1,14.34,14.34,0,0,1-5.61-9.76c3.73,2.49,4.76,6.07,5.61,9.76a7.09,7.09,0,0,0,4.13,1.47c.12,1,.41,3,.41,3a55.61,55.61,0,0,0,6.77,3A95.35,95.35,0,0,1,348.27,508a59.08,59.08,0,0,1-7.38-14.27,72.67,72.67,0,0,1-3.35-15.63c-.61-5.4-.91-10.95-1-16.62s-.36-11.27-.26-16.92c0-2.83,0-5.65.06-8.48s.2-5.67.29-8.51c.06-1.43.11-2.85.16-4.27s.19-2.85.29-4.28c.19-2.86.39-5.72.59-8.6,1.08-11.48,2.4-23.13,4.66-35,1.1-6.42,2.66-12.7,4-18.94.82-3.08,1.64-6.16,2.45-9.22.42-1.53.81-3.06,1.26-4.57s.93-3,1.39-4.52a329.75,329.75,0,0,1,12.78-34.8c2.49-5.55,4.73-11.09,7.17-16.5.59-1.36,1.17-2.72,1.76-4.07s1.14-2.71,1.77-4c1.2-2.68,2.39-5.35,3.59-8s2.45-5.28,3.67-7.91,2.44-5.29,3.7-7.81c2.49-5,5.14-9.94,8-14.64,5.7-9.37,12.32-18.06,20.11-24.67,1-.85,2-1.59,2.95-2.38s2-1.48,3.05-2.12a44,44,0,0,1,6.31-3.48,33.57,33.57,0,0,1,12.85-3.17c3.21-.16,6.78-.45,10.68-.32A66.84,66.84,0,0,1,463,206c9.61,2.16,20.65,7,28.3,10.89A37.72,37.72,0,0,0,499,218a18.14,18.14,0,0,0,5.69-.72,10.28,10.28,0,0,0,6.26-5.23,16.83,16.83,0,0,0,1.16-10.71c-3.17-9.91-8.59-14.76-16.64-19.51-4.07-2.34-8.74-4.71-14.54-7.35-2.91-1.32-6.08-2.73-9.66-4.2-.88-.39-1.81-.75-2.77-1.1L465.53,168c-1-.41-2.07-.72-3.14-1.1s-2.18-.78-3.34-1.14a23.91,23.91,0,0,1,6.15,2.53c1,.76,1.18,1.31.66,1.68a3.19,3.19,0,0,1-1.26.41,17.62,17.62,0,0,1-2.18.24c-.86,0-1.85.05-2.94,0s-2.31,0-3.61,0a188.63,188.63,0,0,0-18.93.51c-7,.5-14.3,1.69-20.87,2.34-9.62.78-19.33,5.26-27.5,11.74S373.52,200.12,367.89,209a216.27,216.27,0,0,0-14.37,27.75l-1.55,3.5c-.49,1.13-1,2.27-1.46,3.4-1,2.25-2,4.49-3,6.69L346,253.66l-1.52,3.27c-1,2.18-2.1,4.31-3.21,6.41-4.43,8.41-7.27,18.08-11.1,28.71-.76,1.67-1.43,3.38-2.08,5.08s-1.31,3.42-2,5.12l-1.89,5.12c-.59,1.72-1.13,3.45-1.68,5.17-1.09,3.45-2.2,6.89-3.15,10.36s-1.82,7-2.69,10.45c-.45,1.73-.83,3.49-1.19,5.24l-1.08,5.27-1,5.26c-.34,1.76-.59,3.53-.89,5.3-.55,3.53-1.13,7.06-1.62,10.61s-.84,7.12-1.25,10.68c-3,28.59-3,57.65-1.84,88.42a90.8,90.8,0,0,0,4.95,24.74A83.68,83.68,0,0,0,325.09,512c6.62,10.2,13.9,20.09,20.64,25.89a91.85,91.85,0,0,0,7.88,6c2.62,1.75,5.25,3.28,7.81,4.77,1.29.73,2.56,1.45,3.83,2.14s2.6,1.24,3.88,1.85c2.59,1.16,5.15,2.25,7.68,3.29-5.33-2.89-10.16-5.1-14.79-8-2.35-1.41-4.74-2.84-7.26-4.41s-5.07-3.48-7.86-5.67c-1.84-1.49-2.24-2.23-1.72-2.4s1.94.2,3.74.83c3.63,1.24,8.7,3.31,11.45,4.48,2.53.74,3.33,6.52,5.93,7.29a18.36,18.36,0,0,0,3.58,2c1.24.55,2.51,1,3.81,1.5l3.95,1.34c1.34.45,2.69.94,4.13,1.35,2.62.42.53,3.66,1.86,3.88a28.21,28.21,0,0,0,5.62,1.53c.92.16,1.82.3,2.71.39l2.63.16c3.4.2,6.3.44,8.39,1.95,1.62,1.09,3.23,2,4.77,2.85l4.53,2.65a26.81,26.81,0,0,0,6.09,2.39l4.41.34a8.27,8.27,0,0,1-.63-4.44c1.89.8,4.41,2.47,6.33,3.28-1.92-.81-4.44-2.48-6.33-3.28a8.27,8.27,0,0,0,.63,4.44c10.57,1.1,22.61,1.45,33.54,1.52l-.1-.36a49.62,49.62,0,0,1-9.28-1.74,29.52,29.52,0,0,1-4.52-1.64,41.33,41.33,0,0,1-4.39-2.5c2.54,1.48,2,2.45-1.22,1.9l-1.94-2.44a51.7,51.7,0,0,1,8.35.84,16.9,16.9,0,0,1,7.64,3.17l3.73-.64c1.66.85,1.41,2,1.63,3,1.24.08,2.5.12,3.75.14a15.61,15.61,0,0,0-2.59-1.8l-1.66-1-1.69-1C451.83,566.67,449.94,565.71,449.94,565.71Z" transform="translate(-307.03 -155.09)"/><path class="cls-2" d="M390.12,544.83c.8.28,1.76.68,2.77,1.11l-5.18-3c-.87-.48-1.7-1-2.52-1.61l-2.5-1.68a6.19,6.19,0,0,0,2.77,3.22A23,23,0,0,0,390.12,544.83Z" transform="translate(-307.03 -155.09)"/></g><g class="cls-1"><path class="cls-2" d="M755.55,440.45q-.4-3.34-.82-6.72a11.82,11.82,0,0,1-.84,3.58C753.67,438.84,754.63,439.47,755.55,440.45Z" transform="translate(-307.03 -155.09)"/><path class="cls-2" d="M754,427.52c-.05-.41-.09-.81-.14-1.19s-.33-.67-.5-1C753.57,426.08,753.79,426.8,754,427.52Z" transform="translate(-307.03 -155.09)"/><path class="cls-2" d="M751.22,416a26.1,26.1,0,0,0,1.07,5.9A16.69,16.69,0,0,0,751.22,416Z" transform="translate(-307.03 -155.09)"/><path class="cls-2" d="M751.72,425.45c.46-.8,1-1.25,1.6-.13,0,0,0,0,0,.05-.36-1.14-.72-2.26-1.05-3.43A12.22,12.22,0,0,1,751.72,425.45Z" transform="translate(-307.03 -155.09)"/><path class="cls-2" d="M751.72,425.45c-.44.77-.78,1.95-1,2.37A12.54,12.54,0,0,0,751.72,425.45Z" transform="translate(-307.03 -155.09)"/><path class="cls-2" d="M737.86,424.59c-.6-1.1,3.24-1.41,2-3.6-1.89-5.26-4.36-9.62-5.17-14.7-1.22-2.17,2.4-6.49,1.18-8.66-2-5.27-9.34-18.28-7.76-10.15,2.61,12.17,4.88,20,7.35,30.94,2.89,8.73,6.08,17.07,8.8,26.07A41.89,41.89,0,0,1,745,452c.12-3.25.22-6.58.25-10.26C745.63,436.81,739.86,431.84,737.86,424.59Z" transform="translate(-307.03 -155.09)"/><path class="cls-2" d="M760.32,490.08l-1.77-3.32c2-5.57.22-10.89-1.65-16.18-.5.88-1,1.77-1.55,2.68.67,3.09,1.78,3.3,2.22.42a44.85,44.85,0,0,0,.28,18.81C758.83,492,760,491.89,760.32,490.08Z" transform="translate(-307.03 -155.09)"/><path class="cls-2" d="M758.66,496.06c-.29-1.19-.57-2.39-.81-3.57a1.92,1.92,0,0,0-.31.18l1,3.53Z" transform="translate(-307.03 -155.09)"/><path class="cls-2" d="M743.79,391.94c-2.69-15.41-4.95-30-7.09-44.19-.93-1-1.92-1.57-1.73-3.11a12.43,12.43,0,0,0,.76-3.56c-.3-2.08-.6-4.16-.9-6.22q-.33-1-.69-2.13l0-.05c-.64-1.09-1.16-.64-1.59.18a12.14,12.14,0,0,1-1,2.41c.25-.46.56-1.61,1-2.41a12.39,12.39,0,0,0,.47-3.52,25.61,25.61,0,0,1-1.22-5.86,16.39,16.39,0,0,1,1.22,5.86c.37,1.17.76,2.28,1.15,3.39l.52.95c-.67-4.76-1.35-9.48-2-14.21-.29-1.06-.56-2.08-.85-2.89-1.14-3.31-2.28-6.6-.84-9-.11-.84-.23-1.69-.35-2.54-.09.17-.15.36-.25.55a7.06,7.06,0,0,1,.18-1q-.76-5.36-1.53-10.75c-1.15-2.16-2.5-4.37-3.5-6.64l1.43-2.75a8,8,0,0,1-2.65-3.6c-.76,2.14-1.67,4.12-2.12,5.9-1.43,2.75,4.81,4.6,1.79,8.1,3-3.5-3.22-5.35-1.79-8.1.45-1.78,1.36-3.76,2.12-5.9a18.54,18.54,0,0,1-.37-11.57c2.46,4,1.65,8,.37,11.57a8,8,0,0,0,2.65,3.6l-1.43,2.75c1,2.27,2.35,4.48,3.5,6.64-1-7-2-14.11-3.13-21.35q-.9-6.07-1.8-12.06l-.47-3-.6-3.54-1.26-7.27q-1.32-7.37-2.63-14.69-1.44-7.49-2.87-15c-1.93-10.05-4-20.15-6.08-30.45q-1.59-7.78-3.21-15.63c-.54-2.65-1.09-5.3-1.64-8-.28-1.34-.55-2.68-.83-4l-.42-2-.2-1c-.08-.31-.13-.82-.24-.67L693.12,179q-5.54,12.47-11.32,25.47L671.11,228l-5.54,12.09-2.82,6.16-.71,1.56-.63,1.34-1,2.17q-8.36,17.29-16.84,34c-22.62,44.56-34.2,88.71-61,132.34-10,16.88-20.73,51.15-26.71,68.78-2.54,25.62,17.38,19.07,18.65,18.3,18.43-9.54,15.16-23.46,33.73-49.74-5.88,9.11-6.64,4.66-3.93-4s8.93-21.5,17-29.15c23.92-21.84,27.73-64.48,44.35-96.29,4.16-8,7-17,11.25-26.78,4.59-9.07,8.83-18.13,12.79-27.23l2.94-6.83,1.27-3h0s0-.05,0-.16a5.83,5.83,0,0,1,0-1.85,30.43,30.43,0,0,1,.73-4.19c.36-.35.86,1,1,2.86.15.64.92-.11,2.27.81a9.9,9.9,0,0,1,2.18,1.64l.59.61.14.17s.06.12.1.21l.11.3.46,1.16q.89,2.32,1.73,4.63A94.32,94.32,0,0,1,705.5,282c.5,4.65.88,9.11,1.61,12.88,1.17,5.92,2.53,11.39,4.06,16.55s3.21,10,4.92,14.78c-1.33-5.42-2.65-10.07-4-14.89s-2.65-9.79-4.12-15.83c-1.81-8.08,6,4.72,8,9.93,1.27,2.15-2.24,6.56-1,8.71,1,5,3.48,9.32,5.53,14.53,1.26,2.16-2.57,2.57-1.94,3.65,2.21,7.19,8,12,7.84,16.91.06,3.67,0,7,0,10.24a35.19,35.19,0,0,0,.8,6.11l1.64,3.85a8.65,8.65,0,0,1,3.69-2.5c.12,2-.24,4.88-.12,6.86-.12-2,.24-4.88.12-6.86a8.65,8.65,0,0,0-3.69,2.5c3.9,9.32,7.73,20.21,11.07,30.39l.31-.2a44.77,44.77,0,0,1-.76-18.77c-.38,2.88-1.49,2.72-2.23-.37.5-.9,1-1.81,1.5-2.71,2,5.26,3.93,10.53,2,16.13l1.85,3.27c-.25,1.81-1.45,1.93-2.41,2.45.26,1.18.56,2.37.88,3.56a29.69,29.69,0,0,0,1.87-6.7C743.52,394.05,743.79,391.94,743.79,391.94Z" transform="translate(-307.03 -155.09)"/><path class="cls-2" d="M733.07,329.18c.28.81.55,1.81.84,2.88q-.82-6-1.64-11.93C730.82,322.56,731.94,325.86,733.07,329.18Z" transform="translate(-307.03 -155.09)"/></g><g class="cls-1"><path class="cls-2" d="M776.76,349.29c-.71-.05-1.43-.12-2.15-.19a4.07,4.07,0,0,1,1.08,1.37C776.16,350.91,776.41,350.05,776.76,349.29Z" transform="translate(-307.03 -155.09)"/><path class="cls-2" d="M772.63,348.89l-.38,0a3.61,3.61,0,0,0-.33.35A7.28,7.28,0,0,1,772.63,348.89Z" transform="translate(-307.03 -155.09)"/><path class="cls-2" d="M768.89,349.88a2.79,2.79,0,0,0,1.91-.16A1.8,1.8,0,0,0,768.89,349.88Z" transform="translate(-307.03 -155.09)"/><path class="cls-2" d="M771.87,350.81a1.5,1.5,0,0,1,0-1.6h0c-.37.18-.74.37-1.12.52A3.1,3.1,0,0,1,771.87,350.81Z" transform="translate(-307.03 -155.09)"/><path class="cls-2" d="M771.87,350.81c.22.55.57,1.07.69,1.39A8.18,8.18,0,0,0,771.87,350.81Z" transform="translate(-307.03 -155.09)"/><path class="cls-2" d="M770.93,364.38c-.38.43-.29-3.41-1-2.55-1.74,1.07-3.24,2.8-4.87,2.81-.75.86-1.92-3.4-2.67-2.54-1.75,1.08-6.22,6.24-3.59,6,4-.58,6.55-1.61,10.11-2.32,2.89-1.54,5.67-3.38,8.63-4.77a4.45,4.45,0,0,1,2.38.37c-1-.59-2.06-1.18-3.21-1.75C775.14,358.58,773.31,363.51,770.93,364.38Z" transform="translate(-307.03 -155.09)"/><path class="cls-2" d="M792.56,351.61l-1.12,1.29c-1.67-2.76-3.42-1.68-5.16-.6.25.64.51,1.28.77,1.92,1-.22,1.12-1.3.23-2.13,2,2.33,4,2.69,5.93,2.3C793.09,353.34,793.11,352.14,792.56,351.61Z" transform="translate(-307.03 -155.09)"/><path class="cls-2" d="M794.36,354.07c-.38.13-.77.23-1.15.32,0,.11,0,.21,0,.33l1.16-.56Z" transform="translate(-307.03 -155.09)"/><path class="cls-2" d="M761,353.39a124.56,124.56,0,0,1-14.21-.41c-.35.75-.59,1.62-1.06,1.17a4.18,4.18,0,0,0-1.08-1.37c-.66-.06-1.33-.12-2-.2l-.7.3,0,0a1.51,1.51,0,0,0,0,1.6,7.83,7.83,0,0,1,.69,1.39c-.12-.33-.47-.84-.69-1.39a3,3,0,0,0-1.08-1.09,2.7,2.7,0,0,1-1.9.15,1.78,1.78,0,0,1,1.9-.15c.39-.16.76-.35,1.13-.53.1-.12.21-.22.32-.35-1.52-.16-3-.35-4.55-.54a6.24,6.24,0,0,0-1,.31c-1.1.51-2.19,1-2.87-.84l-.81-.11c0,.11.1.21.15.34a2.38,2.38,0,0,1-.3-.36l-3.44-.5A22,22,0,0,1,727.2,353l-.78-1.91a3.32,3.32,0,0,1-1.28,1.91c.62,1.15,1.19,2.42,1.71,3.21.78,1.92,1.73-3.86,2.64-.24-.91-3.62-1.86,2.16-2.64.24-.52-.79-1.09-2.06-1.71-3.21-1.08.69-2.49,0-3.62-1.87,1.4-1.62,2.59-.05,3.62,1.87a3.32,3.32,0,0,0,1.28-1.91l.78,1.91a22,22,0,0,0,2.28-2.18c-2.25-.33-4.52-.66-6.84-1-14.93-2.45-28.7-2-44.19-3.82a169.72,169.72,0,0,1-24.35-5c-15.77-4.47-30.15.67-46.08-9-6.11-3.4-17.46-1.56-23.35-1.16-7.9,6.38-3.81,22.86-3.44,23.79,4.86,14,8.66,6.25,18.55,14.5-6.74-4.69,5-9,11.33.58,9.2,14.66,22.33,2.94,33.69,6.69,2.84.94,5.85.27,9.25.56,17.59,5,33.94-1.22,52.44-.08,4.91,0,9.21-3.6,13.34-5.55,3-.66,6.24,1.22,8.69,1.22a22.25,22.25,0,0,0,10.36-3.07c-3.56.7-6.15,1.73-10.11,2.31-2.64.24,1.84-4.92,3.58-6,.75-.86,1.93,3.41,2.68,2.54,1.62,0,3.12-1.73,4.87-2.81.75-.86.66,3,1,2.56,2.39-.87,4.22-5.8,5.74-4.75,1.16.57,2.2,1.17,3.22,1.76a3.65,3.65,0,0,0,2,.23l1.29-1a21.21,21.21,0,0,1-.58-4.06c.63.21,1.51,1.06,2.14,1.27-.63-.21-1.51-1.06-2.14-1.27a21.21,21.21,0,0,0,.58,4.06,71.56,71.56,0,0,1,10.12-5.94c0-.11,0-.23,0-.34-2,.39-3.88,0-5.92-2.3.88.85.77,1.91-.24,2.14-.25-.64-.51-1.28-.77-1.92,1.76-1.08,3.5-2.16,5.16.6l1.13-1.29c.55.53.53,1.74.64,2.77a8.3,8.3,0,0,0,1.16-.31A18.11,18.11,0,0,0,761,353.39Z" transform="translate(-307.03 -155.09)"/><path class="cls-2" d="M740.76,353.29a5.93,5.93,0,0,1,1-.3l-3.83-.52C738.56,354.33,739.66,353.81,740.76,353.29Z" transform="translate(-307.03 -155.09)"/></g><g class="cls-1"><path class="cls-2" d="M1023,569.85c-2.35.17-4.7.4-7.07.42a17.08,17.08,0,0,1,3.68,1.11C1021.21,571.66,1022,570.72,1023,569.85Z" transform="translate(-307.03 -155.09)"/><path class="cls-2" d="M1009.4,570.47l-1.26,0-1.06.37C1007.85,570.69,1008.63,570.57,1009.4,570.47Z" transform="translate(-307.03 -155.09)"/><path class="cls-2" d="M997.05,571.58a23.43,23.43,0,0,0,3.22.15c1.05-.06,2.08-.17,3.09-.31a16,16,0,0,0-2.91-.14A21.27,21.27,0,0,0,997.05,571.58Z" transform="translate(-307.03 -155.09)"/><path class="cls-2" d="M1007,572.44c-.78-.56-1.17-1.15.08-1.61h.05c-1.23.21-2.45.42-3.72.6A13.36,13.36,0,0,1,1007,572.44Z" transform="translate(-307.03 -155.09)"/><path class="cls-2" d="M1007,572.44c.75.53,1.95,1,2.37,1.34A13.43,13.43,0,0,0,1007,572.44Z" transform="translate(-307.03 -155.09)"/><path class="cls-2" d="M1004,586.07c-1.33.45-1.06-3.39-3.65-2.48-3,.49-5.88,1.14-8.69,1.66a37.8,37.8,0,0,1-8.44.6,3.49,3.49,0,0,1-2.18-.27,19,19,0,0,1-2.38-1.31c-1.6-1-3.18-2-4.5-1.67-.77.07-1.7.19-2.71.35s-2.1.29-3.22.48c-2.23.38-4.54.85-6.39,1.33-3.67.9-5.46,1.86-.85,2.43,3.5.28,6.69.47,9.7.63s5.89.12,8.69.15c5.63-.05,11.06-.16,17.35-.48,1.28-.17,2.55-.33,3.81-.54l3.78-.68,3.75-.7,1.86-.35,1.87-.42,7.45-1.67c2.48-.63,5-1.28,7.51-1.88.71-.13,1.41-.21,2.11-.28s1.39-.17,2.08-.23c1.37-.12,2.73-.18,4.1-.26l-5.49-.08c-1.88,0-3.81-.17-5.83-.23a10,10,0,0,0-4.14.6,44.83,44.83,0,0,0-4.55,1.77c-1.6.7-3.32,1.47-5.15,2.15A30.73,30.73,0,0,1,1004,586.07Z" transform="translate(-307.03 -155.09)"/><path class="cls-2" d="M1074.09,559.48l-1.82,1.68c-.31.28-.59.53-.8.69l-.33.28a18.11,18.11,0,0,0-8.57,1.28,55.14,55.14,0,0,0-8,3.64l3,1.08c3.17-1.21,3.2-2.34.12-2.27a41.42,41.42,0,0,0,5.25-.15,36.7,36.7,0,0,0,5-1,48.39,48.39,0,0,0,4.75-1.48c1.53-.65,3-1.36,4.51-2.11C1076.4,560.37,1076,559.24,1074.09,559.48Z" transform="translate(-307.03 -155.09)"/><path class="cls-2" d="M1080.64,559.32c-1.14.63-2.3,1.25-3.45,1.84.08.09.18.16.27.25l3.35-2.06Z" transform="translate(-307.03 -155.09)"/><path class="cls-2" d="M970.37,573.47a274.14,274.14,0,0,1-47-9c-1.33.44-2.36,1-3.78.18a13.84,13.84,0,0,0-3.1-2.29l-6.34-2.16-2.33-.47h-.06c-1.33,0-1.17.68-.61,1.47a15.53,15.53,0,0,1,1.8,2.09c-.32-.44-1.26-1.32-1.8-2.09a13.89,13.89,0,0,0-3.07-2.2,26.31,26.31,0,0,1-6-2.12,19.92,19.92,0,0,1,6,2.12c1.28.27,2.51.5,3.74.73l1.14,0c-4.78-1.78-9.48-3.68-14-5.86-1.11-.37-2.16-.73-3.05-1a30.1,30.1,0,0,1-5-1.85,6.1,6.1,0,0,1-3.19-3.09l-2.31-1.38c.09.18.21.35.29.55a7.73,7.73,0,0,1-.71-.8c-3.19-2-6.36-4.08-9.34-6.4a49.67,49.67,0,0,1-7.34-2.73s-.58-2-.76-3.09a8.35,8.35,0,0,1-4.44-1.36,59.31,59.31,0,0,0,2.26,6.23c.45,1.56,2.24,1.73,3.9,2.06a5.89,5.89,0,0,1,2.26.84,2.94,2.94,0,0,1,1.24,2.32,2.94,2.94,0,0,0-1.24-2.32,5.89,5.89,0,0,0-2.26-.84c-1.66-.33-3.45-.5-3.9-2.06a59.31,59.31,0,0,1-2.26-6.23,16.6,16.6,0,0,1-6.85-9.94,13.31,13.31,0,0,1,4.52,4.46,16.61,16.61,0,0,1,1.33,2.67c.36.94.67,1.9,1,2.81a8.35,8.35,0,0,0,4.44,1.36c.18,1.06.76,3.09.76,3.09a49.67,49.67,0,0,0,7.34,2.73,98.34,98.34,0,0,1-16.06-15.22l-2.73-3.54a16.49,16.49,0,0,1-1.29-1.81l-1.22-1.84a83.54,83.54,0,0,1-4.48-7.54,99.86,99.86,0,0,1-6.5-16.1,120.72,120.72,0,0,1-3.71-17,158.43,158.43,0,0,1-1.47-17.49,241.07,241.07,0,0,1,2-36c1.54-12.23,3.59-24.59,6.46-37.14A354.79,354.79,0,0,1,854.1,347c2.23-6.33,4.69-12.51,7.23-18.61s5.3-12.08,8.16-17.82c5.69-11.45,11.36-22,18-30.8a78.89,78.89,0,0,1,10.75-11.74,67.38,67.38,0,0,1,12.66-8.67,71,71,0,0,1,30.87-7.59,77.25,77.25,0,0,1,32.88,6.54c4.14,1.75,9.19,3.57,14.72,5.68s11.56,4.54,17.63,7.18c12.11,5.27,24.42,11.48,32.84,16.15,6.36,1.85,11,2.07,14.33,1.2a9.86,9.86,0,0,0,6.53-5c2.37-4.44,1.38-10.12,1.08-10.84-3.44-10.24-9.07-15.38-17.13-20.76-4.06-2.66-8.69-5.43-14.17-8.79s-11.72-7.43-19.34-12.55c5.26,3.3,6.51,5.12,5.35,5.62s-4.78-.3-9.66-1.82l-3.88-1.28c-1.36-.46-2.77-1-4.24-1.53-3-1-6.06-2.29-9.25-3.53l-4.78-2c-1.61-.65-3.16-1.42-4.77-2.08s-3.14-1.43-4.66-2.21-3-1.46-4.41-2.26c-8.15-4.73-18.19-7.25-29.08-7.45a90.07,90.07,0,0,0-34,6.49c-.72.28-1.44.54-2.15.84l-2.12,1-4.23,2-4.15,2.26L893,225.73c-.69.38-1.35.84-2,1.26l-4,2.59c-1.32.88-2.58,1.89-3.86,2.84-2.6,1.85-5,4-7.42,6.1-9.53,8.56-17,18.28-23.72,27.39s-11.06,20-15.85,31.35c-1.77,3.61-3.36,7.18-4.9,10.74-.78,1.79-1.51,3.58-2.23,5.38s-1.46,3.59-2.12,5.41c-2.76,7.22-5.13,14.54-7.28,21.89a348,348,0,0,0-9.71,44.82c-1.18,7.57-2.07,15.21-2.86,22.9-.18,1.92-.37,3.85-.55,5.78s-.31,3.87-.47,5.8c-.29,3.9-.57,7.87-.75,11.89-.73,16.05-.68,33,2.13,51a83.63,83.63,0,0,0,9.56,26.38,111.15,111.15,0,0,0,15.61,21.08c1,1.18,1.9,2.4,2.84,3.62s2,2.35,3,3.54c1.89,2.45,4,4.66,5.92,6.93,1,1.16,2,2.19,3,3.21l3,3c2,1.89,4,3.53,6,5,1.53,1.13,3.09,2.11,4.62,3.12l2.28,1.45,2.31,1.28c1.53.83,3.05,1.65,4.56,2.41s3,1.37,4.53,2l2.23.95,2.24.81,4.41,1.54c2.94.88,5.82,1.72,8.68,2.39-1.55-.47-3-1.07-4.49-1.57s-2.89-1-4.29-1.55l-4.15-1.64-2.07-.82-2.05-.91-4.16-1.89c-1.4-.66-2.8-1.44-4.26-2.19-2.93-1.47-5.91-3.38-9.17-5.42-2.11-1.51-2.6-2.27-2.08-2.45s2,.2,4,.73,4.41,1.28,6.7,2,4.52,1.38,6,2c1.39.36,2.54,1.87,3.69,3.48s2.37,3.21,3.81,3.39a34.83,34.83,0,0,0,8.39,2.76c1.44.31,2.91.6,4.4.88s3,.49,4.58.79c2.8.16,1.2,3.66,2.62,3.7a31.25,31.25,0,0,0,6.15.77c2,0,3.88-.09,5.66-.17,3.55-.19,6.63-.39,9.06.84l5.42,2.25,5.09,2.08a35.91,35.91,0,0,0,6.65,1.63l4.6,0a8.34,8.34,0,0,1-1.22-4.39c2.07.66,4.93,2,7,2.59-2.11-.59-5-1.93-7-2.59a8.34,8.34,0,0,0,1.22,4.39c11.13-.18,23.78-.4,35.41-1.13l-.13-.36c-1.68,0-3.36-.14-5-.29a49.82,49.82,0,0,1-5-.83,44.64,44.64,0,0,1-4.93-1.36,43.13,43.13,0,0,1-4.89-2.13c2.85,1.28,2.34,2.28-1.1,2L954.29,574a59.11,59.11,0,0,1,9,.16,18.3,18.3,0,0,1,8.38,2.74s.66-.14,1.48-.35l2.45-.6c1.83.69,1.64,1.88,2,2.94q2,.06,4,0a36.32,36.32,0,0,0-6.58-3.47Z" transform="translate(-307.03 -155.09)"/><path class="cls-2" d="M904,558.86c.9.18,2,.46,3.11.75-2-.77-4-1.53-5.93-2.41s-3.94-1.66-5.85-2.61a6.25,6.25,0,0,0,3.48,2.82A29.75,29.75,0,0,0,904,558.86Z" transform="translate(-307.03 -155.09)"/></g><g class="cls-1"><path class="cls-3" d="M524.18,570.43c-2.2.07-4.41.19-6.62.2a13.83,13.83,0,0,1,3.4,1.19C522.43,572.16,523.15,571.26,524.18,570.43Z" transform="translate(-307.03 -155.09)"/><path class="cls-3" d="M511.45,570.45l-1.17,0c-.36.11-.7.23-1,.35C510,570.64,510.73,570.54,511.45,570.45Z" transform="translate(-307.03 -155.09)"/><path class="cls-3" d="M499.9,571.11a25.4,25.4,0,0,0,5.88.18A16.07,16.07,0,0,0,499.9,571.11Z" transform="translate(-307.03 -155.09)"/><path class="cls-3" d="M509.09,572.38c-.71-.57-1-1.16.13-1.6h0c-1.15.18-2.29.39-3.49.52A12.5,12.5,0,0,1,509.09,572.38Z" transform="translate(-307.03 -155.09)"/><path class="cls-3" d="M509.09,572.38c.68.55,1.78,1.06,2.16,1.38A12.48,12.48,0,0,0,509.09,572.38Z" transform="translate(-307.03 -155.09)"/><path class="cls-3" d="M505.82,586c-1.27.38-.85-3.46-3.32-2.73-2.88.38-5.59.92-8.27,1.34a25.71,25.71,0,0,1-4,.35,30.13,30.13,0,0,1-4-.18C485,585,483.47,584,482,583a17.15,17.15,0,0,0-2.15-1.38,3.1,3.1,0,0,0-2-.52,78.35,78.35,0,0,0-11.84,1.4c-3.56.58-5.37,1.41-1,2.34,3.3.57,6.35.86,9.21,1.2l4.19.45c1.36.15,2.72.14,4.06.21l8,.31,2,.07,2.09,0,4.33,0c2.44-.26,4.83-.48,7.21-.83l7.09-1.26,3.52-.63,1.77-.31,1.76-.41c2.35-.54,4.71-1.07,7.1-1.58a31.24,31.24,0,0,1,3.95-.24c1.28-.08,2.56-.1,3.84-.13l-2.54-.13-1.29-.06-1.31-.13-5.45-.51a8.88,8.88,0,0,0-3.9.43,20.67,20.67,0,0,0-2.09.77c-.72.26-1.47.55-2.23.85A40.48,40.48,0,0,1,505.82,586Z" transform="translate(-307.03 -155.09)"/><path class="cls-3" d="M572.56,563.35l-2.92,2.33a14.31,14.31,0,0,0-2.13-.2c-.68,0-1.37,0-2,0a17.57,17.57,0,0,0-4,.69,60.87,60.87,0,0,0-7.64,3.1c.93.5,1.86.9,2.8,1.31,3-1,3.09-2.14.21-2.25a39.13,39.13,0,0,0,9.65-.27,48.85,48.85,0,0,0,8.88-2.77C574.69,564.47,574.37,563.31,572.56,563.35Z" transform="translate(-307.03 -155.09)"/><path class="cls-3" d="M578.76,563.88c-1.11.5-2.24,1-3.36,1.45a1.94,1.94,0,0,0,.23.27l3.29-1.67Z" transform="translate(-307.03 -155.09)"/><path class="cls-3" d="M474.94,571.71a177.25,177.25,0,0,1-42.68-13c-1.29.24-2.35.72-3.53-.3a12.68,12.68,0,0,0-2.52-2.63c-1.88-.92-3.78-1.78-5.56-2.87-.68-.26-1.38-.51-2.09-.76h-.06c-1.24-.16-1.21.53-.82,1.37A13.39,13.39,0,0,1,419,555.8c-.22-.48-.95-1.44-1.33-2.27a12.4,12.4,0,0,0-2.49-2.54c-.91-.34-1.82-.71-2.72-1.14-.45-.22-.9-.45-1.34-.71s-.85-.57-1.26-.89c.55.2,1.06.42,1.55.64s1,.41,1.42.64a14.72,14.72,0,0,1,2.35,1.46c1.14.43,2.26.8,3.37,1.18l1.06.17-6.19-3.55-1.54-.9-1.48-1-3-2c-1-.49-1.91-1-2.7-1.29s-1.61-.68-2.37-1a10.31,10.31,0,0,1-2.11-1.22,6.09,6.09,0,0,1-2.52-3.39l-2-1.55c.05.18.14.36.19.56a6.81,6.81,0,0,1-.56-.85c-1.4-1.1-2.85-2.14-4.19-3.31s-2.71-2.31-4-3.51a55.61,55.61,0,0,1-6.77-3s-.29-2.05-.41-3a7.09,7.09,0,0,1-4.13-1.47,40.33,40.33,0,0,0,1.57,6.1c.23,1.56,1.94,1.78,3.5,2.18s3,.92,3,3.23c0-2.31-1.41-2.86-3-3.23s-3.27-.62-3.5-2.18a40.33,40.33,0,0,1-1.57-6.1,14.34,14.34,0,0,1-5.61-9.76c3.73,2.49,4.76,6.07,5.61,9.76a7.09,7.09,0,0,0,4.13,1.47c.12,1,.41,3,.41,3a55.61,55.61,0,0,0,6.77,3A95.35,95.35,0,0,1,373.27,514a59.08,59.08,0,0,1-7.38-14.27,72.67,72.67,0,0,1-3.35-15.63c-.61-5.4-.91-10.95-1-16.62s-.36-11.27-.26-16.92c0-2.83,0-5.65.06-8.48s.2-5.67.29-8.51c.06-1.43.11-2.85.16-4.27s.19-2.85.29-4.28c.19-2.86.39-5.72.59-8.6,1.08-11.48,2.4-23.13,4.66-35,1.1-6.42,2.66-12.7,4-18.94.82-3.08,1.64-6.16,2.45-9.22.42-1.53.81-3.06,1.26-4.57s.93-3,1.39-4.52a329.75,329.75,0,0,1,12.78-34.8c2.49-5.55,4.73-11.09,7.17-16.5.59-1.36,1.17-2.72,1.76-4.07s1.14-2.71,1.77-4c1.2-2.68,2.39-5.35,3.59-8s2.45-5.28,3.67-7.91,2.44-5.29,3.7-7.81c2.49-5,5.14-9.94,8-14.64,5.7-9.37,12.32-18.06,20.11-24.67,1-.85,2-1.59,2.95-2.38s2-1.48,3.05-2.12a44,44,0,0,1,6.31-3.48,33.57,33.57,0,0,1,12.85-3.17c3.21-.16,6.78-.45,10.68-.32A66.84,66.84,0,0,1,488,212c9.61,2.16,20.65,7,28.3,10.89A37.72,37.72,0,0,0,524,224a18.14,18.14,0,0,0,5.69-.72,10.28,10.28,0,0,0,6.26-5.23,16.83,16.83,0,0,0,1.16-10.71c-3.17-9.91-8.59-14.76-16.64-19.51-4.07-2.34-8.74-4.71-14.54-7.35-2.91-1.32-6.08-2.73-9.66-4.2-.88-.39-1.81-.75-2.77-1.1L490.53,174c-1-.41-2.07-.72-3.14-1.1s-2.18-.78-3.34-1.14a23.91,23.91,0,0,1,6.15,2.53c1,.76,1.18,1.31.66,1.68a3.19,3.19,0,0,1-1.26.41,17.62,17.62,0,0,1-2.18.24c-.86,0-1.85.05-2.94,0s-2.31,0-3.61,0a188.63,188.63,0,0,0-18.93.51c-7,.5-14.3,1.69-20.87,2.34-9.62.78-19.33,5.26-27.5,11.74S398.52,206.12,392.89,215a216.27,216.27,0,0,0-14.37,27.75l-1.55,3.5c-.49,1.13-1,2.27-1.46,3.4-1,2.25-2,4.49-3,6.69L371,259.66l-1.52,3.27c-1,2.18-2.1,4.31-3.21,6.41-4.43,8.41-7.27,18.08-11.1,28.71-.76,1.67-1.43,3.38-2.08,5.08s-1.31,3.42-2,5.12l-1.89,5.12c-.59,1.72-1.13,3.45-1.68,5.17-1.09,3.45-2.2,6.89-3.15,10.36s-1.82,7-2.69,10.45c-.45,1.73-.83,3.49-1.19,5.24l-1.08,5.27-1,5.26c-.34,1.76-.59,3.53-.89,5.3-.55,3.53-1.13,7.06-1.62,10.61s-.84,7.12-1.25,10.68c-3,28.59-3,57.65-1.84,88.42a90.8,90.8,0,0,0,4.95,24.74A83.68,83.68,0,0,0,350.09,518c6.62,10.2,13.9,20.09,20.64,25.89a91.85,91.85,0,0,0,7.88,6c2.62,1.75,5.25,3.28,7.81,4.77,1.29.73,2.56,1.45,3.83,2.14s2.6,1.24,3.88,1.85c2.59,1.16,5.15,2.25,7.68,3.29-5.33-2.89-10.16-5.1-14.79-8-2.35-1.41-4.74-2.84-7.26-4.41s-5.07-3.48-7.86-5.67c-1.84-1.49-2.24-2.23-1.72-2.4s1.94.2,3.74.83c3.63,1.24,8.7,3.31,11.45,4.48,2.53.74,3.33,6.52,5.93,7.29a18.36,18.36,0,0,0,3.58,2c1.24.55,2.51,1,3.81,1.5l3.95,1.34c1.34.45,2.69.94,4.13,1.35,2.62.42.53,3.66,1.86,3.88a28.21,28.21,0,0,0,5.62,1.53c.92.16,1.82.3,2.71.39l2.63.16c3.4.2,6.3.44,8.39,1.95,1.62,1.09,3.23,2,4.77,2.85l4.53,2.65a26.81,26.81,0,0,0,6.09,2.39l4.41.34a8.27,8.27,0,0,1-.63-4.44c1.89.8,4.41,2.47,6.33,3.28-1.92-.81-4.44-2.48-6.33-3.28a8.27,8.27,0,0,0,.63,4.44c10.57,1.1,22.61,1.45,33.54,1.52l-.1-.36a49.62,49.62,0,0,1-9.28-1.74,29.52,29.52,0,0,1-4.52-1.64,41.33,41.33,0,0,1-4.39-2.5c2.54,1.48,2,2.45-1.22,1.9l-1.94-2.44a51.7,51.7,0,0,1,8.35.84,16.9,16.9,0,0,1,7.64,3.17l3.73-.64c1.66.85,1.41,2,1.63,3,1.24.08,2.5.12,3.75.14a15.61,15.61,0,0,0-2.59-1.8l-1.66-1-1.69-1C476.83,572.67,474.94,571.71,474.94,571.71Z" transform="translate(-307.03 -155.09)"/><path class="cls-3" d="M415.12,550.83c.8.28,1.76.68,2.77,1.11l-5.18-3c-.87-.48-1.7-1-2.52-1.61l-2.5-1.68a6.19,6.19,0,0,0,2.77,3.22A23,23,0,0,0,415.12,550.83Z" transform="translate(-307.03 -155.09)"/></g><g class="cls-1"><path class="cls-3" d="M780.55,446.45q-.4-3.34-.82-6.72a11.82,11.82,0,0,1-.84,3.58C778.67,444.84,779.63,445.47,780.55,446.45Z" transform="translate(-307.03 -155.09)"/><path class="cls-3" d="M779,433.52c-.05-.41-.09-.81-.14-1.19s-.33-.67-.5-1C778.57,432.08,778.79,432.8,779,433.52Z" transform="translate(-307.03 -155.09)"/><path class="cls-3" d="M776.22,422a26.1,26.1,0,0,0,1.07,5.9A16.69,16.69,0,0,0,776.22,422Z" transform="translate(-307.03 -155.09)"/><path class="cls-3" d="M776.72,431.45c.46-.8,1-1.25,1.6-.13,0,0,0,0,0,.05-.36-1.14-.72-2.26-1.05-3.43A12.22,12.22,0,0,1,776.72,431.45Z" transform="translate(-307.03 -155.09)"/><path class="cls-3" d="M776.72,431.45c-.44.77-.78,1.95-1,2.37A12.54,12.54,0,0,0,776.72,431.45Z" transform="translate(-307.03 -155.09)"/><path class="cls-3" d="M762.86,430.59c-.6-1.1,3.24-1.41,2-3.6-1.89-5.26-4.36-9.62-5.17-14.7-1.22-2.17,2.4-6.49,1.18-8.66-2-5.27-9.34-18.28-7.76-10.15,2.61,12.17,4.88,20,7.35,30.94,2.89,8.73,6.08,17.07,8.8,26.07A41.89,41.89,0,0,1,770,458c.12-3.25.22-6.58.25-10.26C770.63,442.81,764.86,437.84,762.86,430.59Z" transform="translate(-307.03 -155.09)"/><path class="cls-3" d="M785.32,496.08l-1.77-3.32c2-5.57.22-10.89-1.65-16.18-.5.88-1,1.77-1.55,2.68.67,3.09,1.78,3.3,2.22.42a44.85,44.85,0,0,0,.28,18.81C783.83,498,785,497.89,785.32,496.08Z" transform="translate(-307.03 -155.09)"/><path class="cls-3" d="M783.66,502.06c-.29-1.19-.57-2.39-.81-3.57a1.92,1.92,0,0,0-.31.18l1,3.53Z" transform="translate(-307.03 -155.09)"/><path class="cls-3" d="M768.79,397.94c-2.69-15.41-4.95-30-7.09-44.19-.93-1-1.92-1.57-1.73-3.11a12.43,12.43,0,0,0,.76-3.56c-.3-2.08-.6-4.16-.9-6.22q-.33-1-.69-2.13l0-.05c-.64-1.09-1.16-.64-1.59.18a12.14,12.14,0,0,1-1,2.41c.25-.46.56-1.61,1-2.41a12.39,12.39,0,0,0,.47-3.52,25.61,25.61,0,0,1-1.22-5.86,16.39,16.39,0,0,1,1.22,5.86c.37,1.17.76,2.28,1.15,3.39l.52.95c-.67-4.76-1.35-9.48-2-14.21-.29-1.06-.56-2.08-.85-2.89-1.14-3.31-2.28-6.6-.84-9-.11-.84-.23-1.69-.35-2.54-.09.17-.15.36-.25.55a7.06,7.06,0,0,1,.18-1q-.76-5.36-1.53-10.75c-1.15-2.16-2.5-4.37-3.5-6.64l1.43-2.75a8,8,0,0,1-2.65-3.6c-.76,2.14-1.67,4.12-2.12,5.9-1.43,2.75,4.81,4.6,1.79,8.1,3-3.5-3.22-5.35-1.79-8.1.45-1.78,1.36-3.76,2.12-5.9a18.54,18.54,0,0,1-.37-11.57c2.46,4,1.65,8,.37,11.57a8,8,0,0,0,2.65,3.6l-1.43,2.75c1,2.27,2.35,4.48,3.5,6.64-1-7-2-14.11-3.13-21.35q-.9-6.07-1.8-12.06l-.47-3-.6-3.54-1.26-7.27q-1.32-7.37-2.63-14.69-1.44-7.49-2.87-15c-1.93-10.05-4-20.15-6.08-30.45q-1.59-7.78-3.21-15.63c-.54-2.65-1.09-5.3-1.64-8-.28-1.34-.55-2.68-.83-4l-.42-2-.2-1c-.08-.31-.13-.82-.24-.67L718.12,185q-5.54,12.47-11.32,25.47L696.11,234l-5.54,12.09-2.82,6.16-.71,1.56-.63,1.34-1,2.17q-8.36,17.3-16.84,34c-22.62,44.56-34.2,88.71-61,132.34-10,16.88-20.73,51.15-26.71,68.78-2.54,25.62,17.38,19.07,18.65,18.3,18.43-9.54,15.16-23.46,33.73-49.74-5.88,9.11-6.64,4.66-3.93-4s8.93-21.5,17-29.15c23.92-21.84,27.73-64.48,44.35-96.29,4.16-8,7-17,11.25-26.78,4.59-9.07,8.83-18.13,12.79-27.23l2.94-6.83,1.27-3h0s0-.05,0-.16a5.83,5.83,0,0,1,0-1.85,30.43,30.43,0,0,1,.73-4.19c.36-.35.86,1,1,2.86.15.64.92-.11,2.27.81a9.9,9.9,0,0,1,2.18,1.64l.59.61.14.17s.06.12.1.21l.11.3.46,1.16q.89,2.32,1.73,4.63A94.32,94.32,0,0,1,730.5,288c.5,4.65.88,9.11,1.61,12.88,1.17,5.92,2.53,11.39,4.06,16.55s3.21,10,4.92,14.78c-1.33-5.42-2.65-10.07-4-14.89s-2.65-9.79-4.12-15.83c-1.81-8.08,6,4.72,8,9.93,1.27,2.15-2.24,6.56-1,8.71,1,5,3.48,9.32,5.53,14.53,1.26,2.16-2.57,2.57-1.94,3.65,2.21,7.19,8,12,7.84,16.91.06,3.67,0,7,0,10.24a35.19,35.19,0,0,0,.8,6.11l1.64,3.85a8.65,8.65,0,0,1,3.69-2.5c.12,2-.24,4.88-.12,6.86-.12-2,.24-4.88.12-6.86a8.65,8.65,0,0,0-3.69,2.5c3.9,9.32,7.73,20.21,11.07,30.39l.31-.2a44.77,44.77,0,0,1-.76-18.77c-.38,2.88-1.49,2.72-2.23-.37.5-.9,1-1.81,1.5-2.71,2,5.26,3.93,10.53,2,16.13l1.85,3.27c-.25,1.81-1.45,1.93-2.41,2.45.26,1.18.56,2.37.88,3.56a29.69,29.69,0,0,0,1.87-6.7C768.52,400.05,768.79,397.94,768.79,397.94Z" transform="translate(-307.03 -155.09)"/><path class="cls-3" d="M758.07,335.18c.28.81.55,1.81.84,2.88q-.82-6-1.64-11.93C755.82,328.56,756.94,331.86,758.07,335.18Z" transform="translate(-307.03 -155.09)"/></g><g class="cls-1"><path class="cls-3" d="M801.76,355.29c-.71-.05-1.43-.12-2.15-.19a4.07,4.07,0,0,1,1.08,1.37C801.16,356.91,801.41,356.05,801.76,355.29Z" transform="translate(-307.03 -155.09)"/><path class="cls-3" d="M797.63,354.89l-.38,0a3.61,3.61,0,0,0-.33.35A7.28,7.28,0,0,1,797.63,354.89Z" transform="translate(-307.03 -155.09)"/><path class="cls-3" d="M793.89,355.88a2.79,2.79,0,0,0,1.91-.16A1.8,1.8,0,0,0,793.89,355.88Z" transform="translate(-307.03 -155.09)"/><path class="cls-3" d="M796.87,356.81a1.5,1.5,0,0,1,0-1.6h0c-.37.18-.74.37-1.12.52A3.1,3.1,0,0,1,796.87,356.81Z" transform="translate(-307.03 -155.09)"/><path class="cls-3" d="M796.87,356.81c.22.55.57,1.07.69,1.39A8.18,8.18,0,0,0,796.87,356.81Z" transform="translate(-307.03 -155.09)"/><path class="cls-3" d="M795.93,370.38c-.38.43-.29-3.41-1-2.55-1.74,1.07-3.24,2.8-4.87,2.81-.75.86-1.92-3.4-2.67-2.54-1.75,1.08-6.22,6.24-3.59,6,4-.58,6.55-1.61,10.11-2.32,2.89-1.54,5.67-3.38,8.63-4.77a4.45,4.45,0,0,1,2.38.37c-1-.59-2.06-1.18-3.21-1.75C800.14,364.58,798.31,369.51,795.93,370.38Z" transform="translate(-307.03 -155.09)"/><path class="cls-3" d="M817.56,357.61l-1.12,1.29c-1.67-2.76-3.42-1.68-5.16-.6.25.64.51,1.28.77,1.92,1-.22,1.12-1.3.23-2.13,2,2.33,4,2.69,5.93,2.3C818.09,359.34,818.11,358.14,817.56,357.61Z" transform="translate(-307.03 -155.09)"/><path class="cls-3" d="M819.36,360.07c-.38.13-.77.23-1.15.32,0,.11,0,.21,0,.33l1.16-.56Z" transform="translate(-307.03 -155.09)"/><path class="cls-3" d="M786,359.39a124.56,124.56,0,0,1-14.21-.41c-.35.75-.59,1.62-1.06,1.17a4.18,4.18,0,0,0-1.08-1.37c-.66-.06-1.33-.12-2-.2l-.7.3,0,0a1.51,1.51,0,0,0,0,1.6,7.83,7.83,0,0,1,.69,1.39c-.12-.33-.47-.84-.69-1.39a3,3,0,0,0-1.08-1.09,2.7,2.7,0,0,1-1.9.15,1.78,1.78,0,0,1,1.9-.15c.39-.16.76-.35,1.13-.53.1-.12.21-.22.32-.35-1.52-.16-3-.35-4.55-.54a6.24,6.24,0,0,0-1,.31c-1.1.51-2.19,1-2.87-.84l-.81-.11c0,.11.1.21.15.34a2.38,2.38,0,0,1-.3-.36l-3.44-.5A22,22,0,0,1,752.2,359l-.78-1.91a3.32,3.32,0,0,1-1.28,1.91c.62,1.15,1.19,2.42,1.71,3.21.78,1.92,1.73-3.86,2.64-.24-.91-3.62-1.86,2.16-2.64.24-.52-.79-1.09-2.06-1.71-3.21-1.08.69-2.49,0-3.62-1.87,1.4-1.62,2.59-.05,3.62,1.87a3.32,3.32,0,0,0,1.28-1.91l.78,1.91a22,22,0,0,0,2.28-2.18c-2.25-.33-4.52-.66-6.84-1-14.93-2.45-28.7-2-44.19-3.82a169.72,169.72,0,0,1-24.35-5c-15.77-4.47-30.15.67-46.08-9-6.11-3.4-17.46-1.56-23.35-1.16-7.9,6.38-3.81,22.86-3.44,23.79,4.86,14,8.66,6.25,18.55,14.5-6.74-4.69,5-9,11.33.58,9.2,14.66,22.33,2.94,33.69,6.69,2.84.94,5.85.27,9.25.56,17.59,5,33.94-1.22,52.44-.08,4.91,0,9.21-3.6,13.34-5.55,3-.66,6.24,1.22,8.69,1.22a22.25,22.25,0,0,0,10.36-3.07c-3.56.7-6.15,1.73-10.11,2.31-2.64.24,1.84-4.92,3.58-6,.75-.86,1.93,3.41,2.68,2.54,1.62,0,3.12-1.73,4.87-2.81.75-.86.66,3,1,2.56,2.39-.87,4.22-5.8,5.74-4.75,1.16.57,2.2,1.17,3.22,1.76a3.65,3.65,0,0,0,2,.23l1.29-1a21.21,21.21,0,0,1-.58-4.06c.63.21,1.51,1.06,2.14,1.27-.63-.21-1.51-1.06-2.14-1.27a21.21,21.21,0,0,0,.58,4.06,71.56,71.56,0,0,1,10.12-5.94c0-.11,0-.23,0-.34-2,.39-3.88,0-5.92-2.3.88.85.77,1.91-.24,2.14-.25-.64-.51-1.28-.77-1.92,1.76-1.08,3.5-2.16,5.16.6l1.13-1.29c.55.53.53,1.74.64,2.77a8.3,8.3,0,0,0,1.16-.31A18.11,18.11,0,0,0,786,359.39Z" transform="translate(-307.03 -155.09)"/><path class="cls-3" d="M765.76,359.29a5.93,5.93,0,0,1,1-.3l-3.83-.52C763.56,360.33,764.66,359.81,765.76,359.29Z" transform="translate(-307.03 -155.09)"/></g><g class="cls-1"><path class="cls-3" d="M1048,575.85c-2.35.17-4.7.4-7.07.42a17.08,17.08,0,0,1,3.68,1.11C1046.21,577.66,1047,576.72,1048,575.85Z" transform="translate(-307.03 -155.09)"/><path class="cls-3" d="M1034.4,576.47l-1.26,0-1.06.37C1032.85,576.69,1033.63,576.57,1034.4,576.47Z" transform="translate(-307.03 -155.09)"/><path class="cls-3" d="M1022.05,577.58a23.43,23.43,0,0,0,3.22.15c1-.06,2.08-.17,3.09-.31a16,16,0,0,0-2.91-.14A21.27,21.27,0,0,0,1022.05,577.58Z" transform="translate(-307.03 -155.09)"/><path class="cls-3" d="M1032,578.44c-.78-.56-1.17-1.15.08-1.61h0c-1.23.21-2.45.42-3.72.6A13.36,13.36,0,0,1,1032,578.44Z" transform="translate(-307.03 -155.09)"/><path class="cls-3" d="M1032,578.44c.75.53,2,1,2.37,1.34A13.43,13.43,0,0,0,1032,578.44Z" transform="translate(-307.03 -155.09)"/><path class="cls-3" d="M1029,592.07c-1.33.45-1.06-3.39-3.65-2.48-3,.49-5.88,1.14-8.69,1.66a37.8,37.8,0,0,1-8.44.6,3.49,3.49,0,0,1-2.18-.27,19,19,0,0,1-2.38-1.31c-1.6-1-3.18-2-4.5-1.67-.77.07-1.7.19-2.71.35s-2.1.29-3.22.48c-2.23.38-4.54.85-6.39,1.33-3.67.9-5.46,1.86-.85,2.43,3.5.28,6.69.47,9.7.63s5.89.12,8.69.15c5.63-.05,11.06-.16,17.35-.48,1.28-.17,2.55-.33,3.81-.54l3.78-.68,3.75-.7,1.86-.35,1.87-.42,7.45-1.67c2.48-.63,5-1.28,7.51-1.88.71-.13,1.41-.21,2.11-.28s1.39-.17,2.08-.23c1.37-.12,2.73-.18,4.1-.26l-5.49-.08c-1.88,0-3.81-.17-5.83-.23a10,10,0,0,0-4.14.6,44.83,44.83,0,0,0-4.55,1.77c-1.6.7-3.32,1.47-5.15,2.15A30.73,30.73,0,0,1,1029,592.07Z" transform="translate(-307.03 -155.09)"/><path class="cls-3" d="M1099.09,565.48l-1.82,1.68c-.31.28-.59.53-.8.69l-.33.28a18.11,18.11,0,0,0-8.57,1.28,55.14,55.14,0,0,0-8,3.64l3,1.08c3.17-1.21,3.2-2.34.12-2.27a41.42,41.42,0,0,0,5.25-.15,36.7,36.7,0,0,0,5-1,48.39,48.39,0,0,0,4.75-1.48c1.53-.65,3-1.36,4.51-2.11C1101.4,566.37,1101,565.24,1099.09,565.48Z" transform="translate(-307.03 -155.09)"/><path class="cls-3" d="M1105.64,565.32c-1.14.63-2.3,1.25-3.45,1.84.08.09.18.16.27.25l3.35-2.06Z" transform="translate(-307.03 -155.09)"/><path class="cls-3" d="M995.37,579.47a274.14,274.14,0,0,1-47-9c-1.33.44-2.36,1-3.78.18a13.84,13.84,0,0,0-3.1-2.29l-6.34-2.16-2.33-.47h-.06c-1.33,0-1.17.68-.61,1.47a15.53,15.53,0,0,1,1.8,2.09c-.32-.44-1.26-1.32-1.8-2.09a13.89,13.89,0,0,0-3.07-2.2,26.31,26.31,0,0,1-6-2.12,19.92,19.92,0,0,1,6,2.12c1.28.27,2.51.5,3.74.73l1.14,0c-4.78-1.78-9.48-3.68-14-5.86-1.11-.37-2.16-.73-3.05-1a30.1,30.1,0,0,1-5-1.85,6.1,6.1,0,0,1-3.19-3.09l-2.31-1.38c.09.18.21.35.29.55a7.73,7.73,0,0,1-.71-.8c-3.19-2-6.36-4.08-9.34-6.4a49.67,49.67,0,0,1-7.34-2.73s-.58-2-.76-3.09a8.35,8.35,0,0,1-4.44-1.36,59.31,59.31,0,0,0,2.26,6.23c.45,1.56,2.24,1.73,3.9,2.06a5.89,5.89,0,0,1,2.26.84,2.94,2.94,0,0,1,1.24,2.32,2.94,2.94,0,0,0-1.24-2.32,5.89,5.89,0,0,0-2.26-.84c-1.66-.33-3.45-.5-3.9-2.06a59.31,59.31,0,0,1-2.26-6.23,16.6,16.6,0,0,1-6.85-9.94,13.31,13.31,0,0,1,4.52,4.46,16.61,16.61,0,0,1,1.33,2.67c.36.94.67,1.9,1,2.81a8.35,8.35,0,0,0,4.44,1.36c.18,1.06.76,3.09.76,3.09a49.67,49.67,0,0,0,7.34,2.73,98.34,98.34,0,0,1-16.06-15.22l-2.73-3.54a16.49,16.49,0,0,1-1.29-1.81l-1.22-1.84a83.54,83.54,0,0,1-4.48-7.54,99.86,99.86,0,0,1-6.5-16.1,120.72,120.72,0,0,1-3.71-17,158.43,158.43,0,0,1-1.47-17.49,241.07,241.07,0,0,1,2-36c1.54-12.23,3.59-24.59,6.46-37.14A354.79,354.79,0,0,1,879.1,353c2.23-6.33,4.69-12.51,7.23-18.61s5.3-12.08,8.16-17.82c5.69-11.45,11.36-22,18-30.8a78.89,78.89,0,0,1,10.75-11.74,67.38,67.38,0,0,1,12.66-8.67,71,71,0,0,1,30.87-7.59,77.25,77.25,0,0,1,32.88,6.54c4.14,1.75,9.19,3.57,14.72,5.68s11.56,4.54,17.63,7.18c12.11,5.27,24.42,11.48,32.84,16.15,6.36,1.85,11,2.07,14.33,1.2a9.86,9.86,0,0,0,6.53-5c2.37-4.44,1.38-10.12,1.08-10.84-3.44-10.24-9.07-15.38-17.13-20.76-4.06-2.66-8.69-5.43-14.17-8.79s-11.72-7.43-19.34-12.55c5.26,3.3,6.51,5.12,5.35,5.62s-4.78-.3-9.66-1.82l-3.88-1.28c-1.36-.46-2.77-1-4.24-1.53-3-1-6.06-2.29-9.25-3.53l-4.78-2c-1.61-.65-3.16-1.42-4.77-2.08s-3.14-1.43-4.66-2.21-3-1.46-4.41-2.26c-8.15-4.73-18.19-7.25-29.08-7.45a90.07,90.07,0,0,0-34,6.49c-.72.28-1.44.54-2.15.84l-2.12,1-4.23,2-4.15,2.26L918,231.73c-.69.38-1.35.84-2,1.26l-4,2.59c-1.32.88-2.58,1.89-3.86,2.84-2.6,1.85-5,4-7.42,6.1-9.53,8.56-17,18.28-23.72,27.39s-11.06,20-15.85,31.35c-1.77,3.61-3.36,7.18-4.9,10.74-.78,1.79-1.51,3.58-2.23,5.38s-1.46,3.59-2.12,5.41c-2.76,7.22-5.13,14.54-7.28,21.89a348,348,0,0,0-9.71,44.82c-1.18,7.57-2.07,15.21-2.86,22.9-.18,1.92-.37,3.85-.55,5.78s-.31,3.87-.47,5.8c-.29,3.9-.57,7.87-.75,11.89-.73,16.05-.68,33,2.13,51a83.63,83.63,0,0,0,9.56,26.38,111.15,111.15,0,0,0,15.61,21.08c1,1.18,1.9,2.4,2.84,3.62s2,2.35,3,3.54c1.89,2.45,4,4.66,5.92,6.93,1,1.16,2,2.19,3,3.21l3,3c2,1.89,4,3.53,6,5,1.53,1.13,3.09,2.11,4.62,3.12l2.28,1.45,2.31,1.28c1.53.83,3.05,1.65,4.56,2.41s3,1.37,4.53,2l2.23.95,2.24.81,4.41,1.54c2.94.88,5.82,1.72,8.68,2.39-1.55-.47-3-1.07-4.49-1.57s-2.89-1-4.29-1.55l-4.15-1.64-2.07-.82-2.05-.91-4.16-1.89c-1.4-.66-2.8-1.44-4.26-2.19-2.93-1.47-5.91-3.38-9.17-5.42-2.11-1.51-2.6-2.27-2.08-2.45s2,.2,4,.73,4.41,1.28,6.7,2,4.52,1.38,6,2c1.39.36,2.54,1.87,3.69,3.48s2.37,3.21,3.81,3.39a34.83,34.83,0,0,0,8.39,2.76c1.44.31,2.91.6,4.4.88s3,.49,4.58.79c2.8.16,1.2,3.66,2.62,3.7a31.25,31.25,0,0,0,6.15.77c2,0,3.88-.09,5.66-.17,3.55-.19,6.63-.39,9.06.84l5.42,2.25,5.09,2.08a35.91,35.91,0,0,0,6.65,1.63l4.6,0a8.34,8.34,0,0,1-1.22-4.39c2.07.66,4.93,2,7,2.59-2.11-.59-5-1.93-7-2.59a8.34,8.34,0,0,0,1.22,4.39c11.13-.18,23.78-.4,35.41-1.13l-.13-.36c-1.68,0-3.36-.14-5-.29a49.82,49.82,0,0,1-5-.83,44.64,44.64,0,0,1-4.93-1.36,43.13,43.13,0,0,1-4.89-2.13c2.85,1.28,2.34,2.28-1.1,2L979.29,580a59.11,59.11,0,0,1,9,.16,18.3,18.3,0,0,1,8.38,2.74s.66-.14,1.48-.35l2.45-.6c1.83.69,1.64,1.88,2,2.94q2,.06,4,0a36.32,36.32,0,0,0-6.58-3.47Z" transform="translate(-307.03 -155.09)"/><path class="cls-3" d="M929,564.86c.9.18,2,.46,3.11.75-2-.77-4-1.53-5.93-2.41s-3.94-1.66-5.85-2.61a6.25,6.25,0,0,0,3.48,2.82A29.75,29.75,0,0,0,929,564.86Z" transform="translate(-307.03 -155.09)"/></g></svg>