<svg xmlns="http://www.w3.org/2000/svg" width="178" height="34" viewBox="0 0 178 34">
  <g id="Grupo_766" data-name="Grupo 766" transform="translate(-454 -6150)">
    <path id="Polígono_47" data-name="Polígono 47" d="M16.622,5.135a2,2,0,0,1,3.757,0l2.279,6.23a2,2,0,0,0,1.829,1.312l6.7.165a2,2,0,0,1,1.141,3.607l-5.2,3.852A2,2,0,0,0,26.4,22.5l1.889,6.149A2,2,0,0,1,25.269,30.9l-5.662-3.765a2,2,0,0,0-2.215,0L11.731,30.9a2,2,0,0,1-3.019-2.253L10.6,22.5A2,2,0,0,0,9.879,20.3l-5.2-3.852a2,2,0,0,1,1.141-3.607l6.7-.165a2,2,0,0,0,1.829-1.312Z" transform="translate(454 6150)" fill="#ff6727"/>
    <path id="Polígono_48" data-name="Polígono 48" d="M16.622,5.135a2,2,0,0,1,3.757,0l2.279,6.23a2,2,0,0,0,1.829,1.312l6.7.165a2,2,0,0,1,1.141,3.607l-5.2,3.852A2,2,0,0,0,26.4,22.5l1.889,6.149A2,2,0,0,1,25.269,30.9l-5.662-3.765a2,2,0,0,0-2.215,0L11.731,30.9a2,2,0,0,1-3.019-2.253L10.6,22.5A2,2,0,0,0,9.879,20.3l-5.2-3.852a2,2,0,0,1,1.141-3.607l6.7-.165a2,2,0,0,0,1.829-1.312Z" transform="translate(490 6150)" fill="#ff6727"/>
    <path id="Polígono_49" data-name="Polígono 49" d="M16.116,5.294a2,2,0,0,1,3.768,0L22.04,11.35a2,2,0,0,0,1.833,1.329l6.438.163a2,2,0,0,1,1.16,3.591l-5.089,3.873a2,2,0,0,0-.705,2.164l1.83,6.12a2,2,0,0,1-3.045,2.224l-5.334-3.645a2,2,0,0,0-2.257,0l-5.334,3.645A2,2,0,0,1,8.493,28.59l1.83-6.12a2,2,0,0,0-.705-2.164L4.529,16.433a2,2,0,0,1,1.16-3.591l6.438-.163A2,2,0,0,0,13.96,11.35Z" transform="translate(524 6150)" fill="#ff6727"/>
    <path id="Polígono_50" data-name="Polígono 50" d="M17.128,4.984a2,2,0,0,1,3.744,0l2.4,6.4a2,2,0,0,0,1.824,1.3l6.954.167a2,2,0,0,1,1.122,3.622L27.858,20.3a2,2,0,0,0-.738,2.224L29.069,28.7a2,2,0,0,1-2.994,2.281L20.087,27.1a2,2,0,0,0-2.174,0l-5.988,3.877A2,2,0,0,1,8.931,28.7l1.948-6.174a2,2,0,0,0-.738-2.224L4.825,16.466a2,2,0,0,1,1.122-3.622l6.954-.167a2,2,0,0,0,1.824-1.3Z" transform="translate(560 6150)" fill="#ff6727"/>
    <path id="Polígono_57" data-name="Polígono 57" d="M17.128,4.984a2,2,0,0,1,3.744,0l2.4,6.4a2,2,0,0,0,1.824,1.3l6.954.167a2,2,0,0,1,1.122,3.622L27.858,20.3a2,2,0,0,0-.738,2.224L29.069,28.7a2,2,0,0,1-2.994,2.281L20.087,27.1a2,2,0,0,0-2.174,0l-5.988,3.877A2,2,0,0,1,8.931,28.7l1.948-6.174a2,2,0,0,0-.738-2.224L4.825,16.466a2,2,0,0,1,1.122-3.622l6.954-.167a2,2,0,0,0,1.824-1.3Z" transform="translate(594 6150)" fill="#ff6727"/>
  </g>
</svg>
