<svg xmlns="http://www.w3.org/2000/svg" width="220" height="43" viewBox="0 0 220 43">
  <g id="Grupo_768" data-name="Grupo 768" transform="translate(-867 -5671)">
    <path id="Polígono_27" data-name="Polígono 27" d="M20.613,5.364a2,2,0,0,1,3.773,0l3.281,9.327A2,2,0,0,0,29.5,16.026l9.862.253a2,2,0,0,1,1.169,3.584L32.688,25.9a2,2,0,0,0-.7,2.151l2.81,9.509a2,2,0,0,1-3.055,2.212l-8.107-5.605a2,2,0,0,0-2.275,0l-8.107,5.605A2,2,0,0,1,10.2,37.565l2.81-9.509a2,2,0,0,0-.7-2.151L4.467,19.864A2,2,0,0,1,5.636,16.28l9.862-.253a2,2,0,0,0,1.835-1.336Z" transform="translate(867 5671)" fill="#ff6727"/>
    <path id="Polígono_28" data-name="Polígono 28" d="M20.613,5.364a2,2,0,0,1,3.773,0l3.281,9.327A2,2,0,0,0,29.5,16.026l9.862.253a2,2,0,0,1,1.169,3.584L32.688,25.9a2,2,0,0,0-.7,2.151l2.81,9.509a2,2,0,0,1-3.055,2.212l-8.107-5.605a2,2,0,0,0-2.275,0l-8.107,5.605A2,2,0,0,1,10.2,37.565l2.81-9.509a2,2,0,0,0-.7-2.151L4.467,19.864A2,2,0,0,1,5.636,16.28l9.862-.253a2,2,0,0,0,1.835-1.336Z" transform="translate(911 5671)" fill="#ff6727"/>
    <path id="Polígono_29" data-name="Polígono 29" d="M20.109,5.5a2,2,0,0,1,3.783,0l3.157,9.18a2,2,0,0,0,1.839,1.349l9.578.252A2,2,0,0,1,39.65,19.85l-7.693,6.058a2,2,0,0,0-.684,2.126l2.739,9.482A2,2,0,0,1,30.936,39.7l-7.781-5.5a2,2,0,0,0-2.31,0l-7.781,5.5a2,2,0,0,1-3.076-2.188l2.739-9.482a2,2,0,0,0-.684-2.126L4.35,19.85a2,2,0,0,1,1.185-3.571l9.578-.252a2,2,0,0,0,1.839-1.349Z" transform="translate(953 5671)" fill="#ff6727"/>
    <path id="Polígono_30" data-name="Polígono 30" d="M21.118,5.234a2,2,0,0,1,3.764,0l3.4,9.469a2,2,0,0,0,1.832,1.323l10.145.255a2,2,0,0,1,1.153,3.6l-8,6.024a2,2,0,0,0-.711,2.176l2.88,9.534a2,2,0,0,1-3.035,2.235l-8.431-5.7a2,2,0,0,0-2.241,0l-8.431,5.7a2,2,0,0,1-3.035-2.235l2.88-9.534a2,2,0,0,0-.711-2.176l-8-6.024a2,2,0,0,1,1.153-3.6l10.145-.255A2,2,0,0,0,17.713,14.7Z" transform="translate(997 5671)" fill="#ff6727"/>
    <path id="Polígono_31" data-name="Polígono 31" d="M20.613,5.364a2,2,0,0,1,3.773,0l3.281,9.327A2,2,0,0,0,29.5,16.026l9.862.253a2,2,0,0,1,1.169,3.584L32.688,25.9a2,2,0,0,0-.7,2.151l2.81,9.509a2,2,0,0,1-3.055,2.212l-8.107-5.605a2,2,0,0,0-2.275,0l-8.107,5.605A2,2,0,0,1,10.2,37.565l2.81-9.509a2,2,0,0,0-.7-2.151L4.467,19.864A2,2,0,0,1,5.636,16.28l9.862-.253a2,2,0,0,0,1.835-1.336Z" transform="translate(1042 5671)" fill="#bde1dc"/>
  </g>
</svg>
