<?xml version="1.0" encoding="utf-8"?>
<!-- Generator: Adobe Illustrator 26.2.1, SVG Export Plug-In . SVG Version: 6.00 Build 0)  -->
<svg version="1.1" id="Capa_1" xmlns="http://www.w3.org/2000/svg" xmlns:xlink="http://www.w3.org/1999/xlink" x="0px" y="0px"
	 viewBox="0 0 246 164.4" style="enable-background:new 0 0 246 164.4;" xml:space="preserve">
<style type="text/css">
	.st0{fill:#48AC9F;}
</style>
<g id="Grupo_771" transform="translate(-140 -45)">
	<path id="Trazado_330" class="st0" d="M386,85.3L386,85.3c0,9.1-7.3,16.4-16.4,16.4h-40.3V69.2h40.6C378.8,69.2,386,76.4,386,85.3"
		/>
	<path id="Trazado_331" class="st0" d="M345.7,45L345.7,45c8.9,0,16,7.2,16.1,16.1v40.6h-32.5V61.4C329.3,52.3,336.6,45,345.7,45
		L345.7,45"/>
</g>
<g id="Grupo_770" transform="translate(-140 -45)">
	<path id="Trazado_328" class="st0" d="M196.1,148.3v-2.4c0.3-2.5-0.5-5.1-2.1-7.1c-3.4-1.9-7.3-2.7-11.2-2.2
		c-11.3,0.2-22.4,2.4-32.9,6.5l-3.9-22.8c12.6-3.9,25.8-6,39-6.2c20,0,32.5,5.1,37.4,15.2c1.9,4.1,2.9,8.5,2.9,12.9v64.5h-23.2
		l-2.8-6.3c-2.4,2.1-5.1,3.8-7.9,5.3c-7.2,2.7-15,4-22.7,3.7c-12.7,0-21-3.1-24.9-9.4c-3-6-4.2-12.6-3.8-19.3
		c0-15.3,5.4-24.8,16.3-28.4C169.5,149.6,182.8,148.3,196.1,148.3 M196.1,168.1c-1.9,0-3.3,0-4.2,0.1c-5.8-0.2-11.6,0.5-17.2,2
		c-3.1,1-5.1,4.1-4.7,7.4c-0.2,2.3,0.4,4.5,1.7,6.4c1.5,1.5,3.7,2.3,5.8,2.1c7.3,0.3,14.3-3,18.7-8.8L196.1,168.1z"/>
	<path id="Trazado_329" class="st0" d="M255.2,141h-14.8l1.5-24.1h13.3l1.1-23.9l28.2-1.7v25.5h30.6l-1.5,24.1h-29.1v27.9
		c-0.2,4.2,0.2,8.4,1.3,12.5c1.4,3.3,4.8,5.2,8.3,4.7c5.9-0.4,11.6-1.9,17-4.4l3.2,22.6c-10.2,3.4-20.8,5.1-31.5,5
		c-6.2,0.4-12.4-1-17.9-4.1c-5.6-4.6-8.8-11.4-8.9-18.7c-0.6-5.6-0.9-11.1-0.8-16.7L255.2,141z"/>
	<rect id="Rectángulo_362" x="329.3" y="116.6" class="st0" width="29.9" height="89.6"/>
</g>
</svg>
