<?xml version="1.0" encoding="utf-8"?>
<!-- Generator: Adobe Illustrator 26.2.1, SVG Export Plug-In . SVG Version: 6.00 Build 0)  -->
<svg version="1.1" id="Capa_1" xmlns="http://www.w3.org/2000/svg" xmlns:xlink="http://www.w3.org/1999/xlink" x="0px" y="0px"
	 viewBox="0 0 30 30" style="enable-background:new 0 0 30 30;" xml:space="preserve">
<style type="text/css">
	.st0{fill:#48AC9F;}
</style>
<g>
	<path class="st0" d="M0,14.7c0.3-0.8,0.8-1,1.6-1c9,0,18,0,26.9,0c0.7,0,1.2,0.3,1.4,0.9c0.2,0.8-0.3,1.5-1.1,1.6
		c-0.1,0-0.2,0-0.4,0c-9,0-17.9,0-26.9,0c-0.8,0-1.3-0.3-1.6-1C0,15.1,0,14.9,0,14.7z"/>
	<path class="st0" d="M0,5.1c0.1-0.2,0.2-0.5,0.4-0.6c0.2-0.2,0.5-0.2,0.7-0.3c0.1,0,0.2,0,0.3,0c9,0,18,0,27,0c0.2,0,0.4,0,0.6,0.1
		c0.7,0.1,1,0.7,1,1.3c-0.1,0.6-0.6,1-1.2,1.1c-0.1,0-0.3,0-0.4,0c-8.9,0-17.9,0-26.8,0c-0.8,0-1.3-0.2-1.6-1C0,5.5,0,5.3,0,5.1z"/>
	<path class="st0" d="M0,24.3c0.2-0.7,0.8-1,1.5-1c9,0,18,0,27.1,0c0.7,0,1.2,0.3,1.3,0.9c0.2,0.7-0.3,1.5-1.1,1.6
		c-0.2,0-0.3,0-0.5,0c-8.9,0-17.8,0-26.8,0c-0.8,0-1.3-0.2-1.6-1C0,24.7,0,24.5,0,24.3z"/>
</g>
</svg>
